<svg width="128" height="128" viewBox="0 0 128 128" fill="none" xmlns="http://www.w3.org/2000/svg">
<path d="M109.01 28.64L71.2802 6.23999C69.0302 4.90999 66.5102 4.23999 64.0002 4.23999C61.4902 4.23999 58.9702 4.90999 56.7202 6.24999L18.9802 28.65C14.4802 31.32 11.7002 36.26 11.7002 41.61V86.41C11.7002 91.76 14.4702 96.7 18.9802 99.37L56.7102 121.77C58.9602 123.11 61.4702 123.77 63.9902 123.77C66.5002 123.77 69.0202 123.1 71.2702 121.77L109.01 99.37C113.51 96.7 116.29 91.75 116.29 86.41V41.6C116.29 36.26 113.52 31.31 109.01 28.64V28.64ZM79.7902 98.59L79.8502 101.81C79.8502 102.2 79.6002 102.64 79.3002 102.8L77.3902 103.9C77.0902 104.05 76.8302 103.87 76.8302 103.48L76.8002 100.31C75.1702 100.99 73.5102 101.15 72.4602 100.73C72.2602 100.65 72.1702 100.36 72.2502 100.02L72.9402 97.11C73.0002 96.88 73.1202 96.65 73.2802 96.51C73.3402 96.45 73.4002 96.41 73.4602 96.38C73.5702 96.32 73.6802 96.31 73.7702 96.35C74.9102 96.73 76.3602 96.55 77.7602 95.85C79.5402 94.95 80.7302 93.13 80.7102 91.33C80.6902 89.69 79.8102 89.02 77.6602 89C74.9202 89.01 72.3602 88.47 72.3202 84.43C72.2902 81.11 74.0102 77.65 76.7502 75.47L76.7202 72.22C76.7202 71.82 76.9602 71.38 77.2702 71.22L79.1202 70.04C79.4202 69.89 79.6802 70.08 79.6802 70.47L79.7102 73.72C81.0702 73.18 82.2502 73.03 83.3202 73.28C83.5502 73.34 83.6602 73.66 83.5602 74.03L82.8402 76.91C82.7802 77.13 82.6602 77.35 82.5102 77.49C82.4544 77.5461 82.3903 77.5934 82.3202 77.63C82.2202 77.68 82.1302 77.69 82.0402 77.68C81.5502 77.57 80.3902 77.32 78.5602 78.24C76.6402 79.21 75.9702 80.88 75.9802 82.12C76.0002 83.6 76.7502 84.05 79.3702 84.09C82.8602 84.15 84.3602 85.67 84.4002 89.18C84.4502 92.62 82.6102 96.33 79.7902 98.59V98.59ZM99.5702 93.18C99.5702 93.48 99.5302 93.76 99.2802 93.9L89.7402 99.7C89.4902 99.85 89.2902 99.72 89.2902 99.42V96.96C89.2902 96.66 89.4702 96.5 89.7202 96.35L99.1202 90.73C99.3702 90.58 99.5702 90.71 99.5702 91.01V93.18V93.18ZM106.13 38.09L70.4302 60.14C65.9802 62.74 62.7002 65.66 62.6902 71.03V115.02C62.6902 118.23 63.9902 120.31 65.9802 120.92C65.3302 121.03 64.6602 121.11 64.0002 121.11C61.9102 121.11 59.8502 120.54 58.0402 119.47L20.3102 97.07C16.6202 94.88 14.3302 90.79 14.3302 86.4V41.6C14.3302 37.21 16.6202 33.12 20.3102 30.93L58.0502 8.52999C59.8602 7.45999 61.9202 6.88999 64.0102 6.88999C66.1002 6.88999 68.1602 7.45999 69.9702 8.52999L107.71 30.93C110.82 32.78 112.92 35.97 113.51 39.56C112.24 36.89 109.42 36.17 106.13 38.09Z" fill="#DEDEDE"/>
</svg>
