<svg width="115" height="108" viewBox="0 0 115 108" fill="none" xmlns="http://www.w3.org/2000/svg">
<path opacity="0.4" d="M56.3014 51.3796L50.0505 50.4887L46.0837 54.4555C45.4048 55.1343 45.8857 56.294 46.8473 56.294L54.173 56.294C55.3468 56.294 56.3014 55.3394 56.3014 54.1656L56.3014 51.3796Z" fill="#CACACA"/>
<path d="M54.4557 46.0834L50.0504 50.4886L56.3012 51.3796L56.3012 46.84C56.2942 45.8854 55.1345 45.4045 54.4557 46.0834Z" fill="#CACACA"/>
<path opacity="0.4" d="M42.0819 14.38L24.0019 24.84L5.92188 14.38C6.72188 12.9 7.88188 11.6 9.18188 10.88L19.8619 4.96C22.1419 3.68 25.8619 3.68 28.1419 4.96L38.8219 10.88C40.1219 11.6 41.2819 12.9 42.0819 14.38Z" fill="white"/>
<path opacity="0.6" d="M24.0012 24.84V44C22.5012 44 21.0012 43.68 19.8612 43.04L9.18125 37.12C6.76125 35.78 4.78125 32.42 4.78125 29.66V18.34C4.78125 17.06 5.22125 15.66 5.92125 14.38L24.0012 24.84Z" fill="white"/>
<path d="M43.222 18.34V29.66C43.222 32.42 41.242 35.78 38.822 37.12L28.142 43.04C27.002 43.68 25.502 44 24.002 44V24.84L42.082 14.38C42.782 15.66 43.222 17.06 43.222 18.34Z" fill="white"/>
<path d="M72.368 80.928C72.08 80.928 71.784 80.912 71.48 80.88C71.192 80.832 70.904 80.752 70.616 80.64C70.184 80.464 69.768 80.232 69.368 79.944C68.984 79.64 68.632 79.304 68.312 78.936C67.544 78.072 66.96 77.056 66.56 75.888C66.16 74.704 65.96 73.504 65.96 72.288C65.96 70.624 66.28 69.016 66.92 67.464C67.032 67.192 67.176 66.904 67.352 66.6C67.544 66.296 67.752 66.008 67.976 65.736C68.216 65.448 68.456 65.192 68.696 64.968C68.952 64.744 69.208 64.576 69.464 64.464C69.816 64.304 70.2 64.144 70.616 63.984C71.128 63.824 71.704 63.752 72.344 63.768C72.984 63.784 73.568 63.856 74.096 63.984C74.832 64.16 75.464 64.48 75.992 64.944C76.52 65.392 76.968 65.936 77.336 66.576C77.704 67.2 77.992 67.888 78.2 68.64C78.408 69.376 78.56 70.128 78.656 70.896C78.72 71.408 78.744 71.92 78.728 72.432C78.712 72.928 78.672 73.432 78.608 73.944C78.544 74.408 78.464 74.872 78.368 75.336C78.288 75.8 78.176 76.248 78.032 76.68C77.888 77.112 77.704 77.528 77.48 77.928C77.256 78.312 76.976 78.672 76.64 79.008C76.032 79.6 75.368 80.064 74.648 80.4C73.944 80.72 73.184 80.896 72.368 80.928ZM72.344 66.936C72.12 66.936 71.896 66.96 71.672 67.008C71.464 67.04 71.264 67.12 71.072 67.248C70.848 67.392 70.648 67.568 70.472 67.776C70.296 67.984 70.144 68.2 70.016 68.424C69.68 69 69.448 69.616 69.32 70.272C69.192 70.928 69.128 71.592 69.128 72.264C69.128 72.952 69.2 73.664 69.344 74.4C69.504 75.136 69.784 75.808 70.184 76.416C70.376 76.704 70.6 76.96 70.856 77.184C71.128 77.392 71.44 77.544 71.792 77.64C72.112 77.72 72.432 77.744 72.752 77.712C73.088 77.68 73.4 77.576 73.688 77.4C74.152 77.112 74.52 76.728 74.792 76.248C75.064 75.768 75.264 75.248 75.392 74.688C75.536 74.128 75.616 73.552 75.632 72.96C75.664 72.368 75.664 71.832 75.632 71.352C75.6 70.872 75.52 70.368 75.392 69.84C75.264 69.312 75.072 68.832 74.816 68.4C74.576 67.968 74.248 67.616 73.832 67.344C73.432 67.056 72.936 66.92 72.344 66.936ZM84.6817 63.672C84.7937 63.64 84.8977 63.616 84.9937 63.6C85.0897 63.568 85.1857 63.544 85.2817 63.528C85.3937 63.496 85.5297 63.48 85.6897 63.48C85.8657 63.464 86.0257 63.472 86.1697 63.504C86.3297 63.52 86.4737 63.568 86.6017 63.648C86.7457 63.712 86.8497 63.816 86.9137 63.96C86.9777 64.12 87.0177 64.312 87.0337 64.536C87.0657 64.744 87.0817 64.96 87.0817 65.184C87.0817 65.408 87.0737 65.632 87.0577 65.856C87.0577 66.064 87.0577 66.256 87.0577 66.432V78.696C87.0577 78.872 87.0577 79.056 87.0577 79.248C87.0737 79.424 87.0737 79.608 87.0577 79.8C87.0417 79.992 86.9937 80.176 86.9137 80.352C86.8337 80.512 86.7137 80.648 86.5537 80.76C86.3297 80.936 86.0257 81.024 85.6417 81.024C85.2737 81.04 84.9537 81 84.6817 80.904C84.3937 80.808 84.2177 80.624 84.1537 80.352C84.1057 80.08 84.0817 79.808 84.0817 79.536C83.9697 77.424 83.9137 75.36 83.9137 73.344C83.9297 71.312 83.9377 69.224 83.9377 67.08C83.9057 67.16 83.7937 67.232 83.6017 67.296C83.4257 67.36 83.2177 67.416 82.9777 67.464C82.7537 67.512 82.5377 67.552 82.3297 67.584C82.1217 67.616 81.9857 67.632 81.9217 67.632C81.5057 67.68 81.1217 67.64 80.7697 67.512C80.4337 67.368 80.2417 67.048 80.1937 66.552C80.1297 66.04 80.2417 65.64 80.5297 65.352C80.8337 65.064 81.2177 64.848 81.6817 64.704C82.1937 64.528 82.6897 64.352 83.1697 64.176C83.6657 63.984 84.1697 63.816 84.6817 63.672ZM96.9193 80.928C96.6313 80.928 96.3353 80.912 96.0313 80.88C95.7433 80.832 95.4553 80.752 95.1673 80.64C94.7353 80.464 94.3193 80.232 93.9193 79.944C93.5353 79.64 93.1833 79.304 92.8633 78.936C92.0953 78.072 91.5113 77.056 91.1113 75.888C90.7113 74.704 90.5113 73.504 90.5113 72.288C90.5113 70.624 90.8313 69.016 91.4713 67.464C91.5833 67.192 91.7273 66.904 91.9033 66.6C92.0953 66.296 92.3033 66.008 92.5273 65.736C92.7673 65.448 93.0073 65.192 93.2473 64.968C93.5033 64.744 93.7593 64.576 94.0153 64.464C94.3673 64.304 94.7513 64.144 95.1673 63.984C95.6793 63.824 96.2553 63.752 96.8953 63.768C97.5353 63.784 98.1193 63.856 98.6473 63.984C99.3833 64.16 100.015 64.48 100.543 64.944C101.071 65.392 101.519 65.936 101.887 66.576C102.255 67.2 102.543 67.888 102.751 68.64C102.959 69.376 103.111 70.128 103.207 70.896C103.271 71.408 103.295 71.92 103.279 72.432C103.263 72.928 103.223 73.432 103.159 73.944C103.095 74.408 103.015 74.872 102.919 75.336C102.839 75.8 102.727 76.248 102.583 76.68C102.439 77.112 102.255 77.528 102.031 77.928C101.807 78.312 101.527 78.672 101.191 79.008C100.583 79.6 99.9193 80.064 99.1993 80.4C98.4953 80.72 97.7353 80.896 96.9193 80.928ZM96.8953 66.936C96.6713 66.936 96.4473 66.96 96.2233 67.008C96.0153 67.04 95.8153 67.12 95.6233 67.248C95.3993 67.392 95.1993 67.568 95.0233 67.776C94.8473 67.984 94.6953 68.2 94.5673 68.424C94.2313 69 93.9993 69.616 93.8713 70.272C93.7433 70.928 93.6793 71.592 93.6793 72.264C93.6793 72.952 93.7513 73.664 93.8953 74.4C94.0553 75.136 94.3353 75.808 94.7353 76.416C94.9273 76.704 95.1513 76.96 95.4073 77.184C95.6793 77.392 95.9913 77.544 96.3433 77.64C96.6633 77.72 96.9833 77.744 97.3033 77.712C97.6393 77.68 97.9513 77.576 98.2393 77.4C98.7033 77.112 99.0713 76.728 99.3433 76.248C99.6153 75.768 99.8153 75.248 99.9433 74.688C100.087 74.128 100.167 73.552 100.183 72.96C100.215 72.368 100.215 71.832 100.183 71.352C100.151 70.872 100.071 70.368 99.9433 69.84C99.8153 69.312 99.6233 68.832 99.3673 68.4C99.1273 67.968 98.7993 67.616 98.3833 67.344C97.9833 67.056 97.4873 66.92 96.8953 66.936ZM109.233 63.672C109.345 63.64 109.449 63.616 109.545 63.6C109.641 63.568 109.737 63.544 109.833 63.528C109.945 63.496 110.081 63.48 110.241 63.48C110.417 63.464 110.577 63.472 110.721 63.504C110.881 63.52 111.025 63.568 111.153 63.648C111.297 63.712 111.401 63.816 111.465 63.96C111.529 64.12 111.569 64.312 111.585 64.536C111.617 64.744 111.633 64.96 111.633 65.184C111.633 65.408 111.625 65.632 111.609 65.856C111.609 66.064 111.609 66.256 111.609 66.432V78.696C111.609 78.872 111.609 79.056 111.609 79.248C111.625 79.424 111.625 79.608 111.609 79.8C111.593 79.992 111.545 80.176 111.465 80.352C111.385 80.512 111.265 80.648 111.105 80.76C110.881 80.936 110.577 81.024 110.193 81.024C109.825 81.04 109.505 81 109.233 80.904C108.945 80.808 108.769 80.624 108.705 80.352C108.657 80.08 108.633 79.808 108.633 79.536C108.521 77.424 108.465 75.36 108.465 73.344C108.481 71.312 108.489 69.224 108.489 67.08C108.457 67.16 108.345 67.232 108.153 67.296C107.977 67.36 107.769 67.416 107.529 67.464C107.305 67.512 107.089 67.552 106.881 67.584C106.673 67.616 106.537 67.632 106.473 67.632C106.057 67.68 105.673 67.64 105.321 67.512C104.985 67.368 104.793 67.048 104.745 66.552C104.681 66.04 104.793 65.64 105.081 65.352C105.385 65.064 105.769 64.848 106.233 64.704C106.745 64.528 107.241 64.352 107.721 64.176C108.217 63.984 108.721 63.816 109.233 63.672ZM69.992 86.672C70.104 86.64 70.208 86.616 70.304 86.6C70.4 86.568 70.496 86.544 70.592 86.528C70.704 86.496 70.84 86.48 71 86.48C71.176 86.464 71.336 86.472 71.48 86.504C71.64 86.52 71.784 86.568 71.912 86.648C72.056 86.712 72.16 86.816 72.224 86.96C72.288 87.12 72.328 87.312 72.344 87.536C72.376 87.744 72.392 87.96 72.392 88.184C72.392 88.408 72.384 88.632 72.368 88.856C72.368 89.064 72.368 89.256 72.368 89.432V101.696C72.368 101.872 72.368 102.056 72.368 102.248C72.384 102.424 72.384 102.608 72.368 102.8C72.352 102.992 72.304 103.176 72.224 103.352C72.144 103.512 72.024 103.648 71.864 103.76C71.64 103.936 71.336 104.024 70.952 104.024C70.584 104.04 70.264 104 69.992 103.904C69.704 103.808 69.528 103.624 69.464 103.352C69.416 103.08 69.392 102.808 69.392 102.536C69.28 100.424 69.224 98.36 69.224 96.344C69.24 94.312 69.248 92.224 69.248 90.08C69.216 90.16 69.104 90.232 68.912 90.296C68.736 90.36 68.528 90.416 68.288 90.464C68.064 90.512 67.848 90.552 67.64 90.584C67.432 90.616 67.296 90.632 67.232 90.632C66.816 90.68 66.432 90.64 66.08 90.512C65.744 90.368 65.552 90.048 65.504 89.552C65.44 89.04 65.552 88.64 65.84 88.352C66.144 88.064 66.528 87.848 66.992 87.704C67.504 87.528 68 87.352 68.48 87.176C68.976 86.984 69.48 86.816 69.992 86.672ZM79.8536 86.672C79.9656 86.64 80.0696 86.616 80.1656 86.6C80.2616 86.568 80.3576 86.544 80.4536 86.528C80.5656 86.496 80.7016 86.48 80.8616 86.48C81.0376 86.464 81.1976 86.472 81.3416 86.504C81.5016 86.52 81.6456 86.568 81.7736 86.648C81.9176 86.712 82.0216 86.816 82.0856 86.96C82.1496 87.12 82.1896 87.312 82.2056 87.536C82.2376 87.744 82.2536 87.96 82.2536 88.184C82.2536 88.408 82.2456 88.632 82.2296 88.856C82.2296 89.064 82.2296 89.256 82.2296 89.432V101.696C82.2296 101.872 82.2296 102.056 82.2296 102.248C82.2456 102.424 82.2456 102.608 82.2296 102.8C82.2136 102.992 82.1656 103.176 82.0856 103.352C82.0056 103.512 81.8856 103.648 81.7256 103.76C81.5016 103.936 81.1976 104.024 80.8136 104.024C80.4456 104.04 80.1256 104 79.8536 103.904C79.5656 103.808 79.3896 103.624 79.3256 103.352C79.2776 103.08 79.2536 102.808 79.2536 102.536C79.1416 100.424 79.0856 98.36 79.0856 96.344C79.1016 94.312 79.1096 92.224 79.1096 90.08C79.0776 90.16 78.9656 90.232 78.7736 90.296C78.5976 90.36 78.3896 90.416 78.1496 90.464C77.9256 90.512 77.7096 90.552 77.5016 90.584C77.2936 90.616 77.1576 90.632 77.0936 90.632C76.6776 90.68 76.2936 90.64 75.9416 90.512C75.6056 90.368 75.4136 90.048 75.3656 89.552C75.3016 89.04 75.4136 88.64 75.7016 88.352C76.0056 88.064 76.3896 87.848 76.8536 87.704C77.3656 87.528 77.8616 87.352 78.3416 87.176C78.8376 86.984 79.3416 86.816 79.8536 86.672ZM92.0911 103.928C91.8031 103.928 91.5071 103.912 91.2031 103.88C90.9151 103.832 90.6271 103.752 90.3391 103.64C89.9071 103.464 89.4911 103.232 89.0911 102.944C88.7071 102.64 88.3551 102.304 88.0351 101.936C87.2671 101.072 86.6831 100.056 86.2831 98.888C85.8831 97.704 85.6831 96.504 85.6831 95.288C85.6831 93.624 86.0031 92.016 86.6431 90.464C86.7551 90.192 86.8991 89.904 87.0751 89.6C87.2671 89.296 87.4751 89.008 87.6991 88.736C87.9391 88.448 88.1791 88.192 88.4191 87.968C88.6751 87.744 88.9311 87.576 89.1871 87.464C89.5391 87.304 89.9231 87.144 90.3391 86.984C90.8511 86.824 91.4271 86.752 92.0671 86.768C92.7071 86.784 93.2911 86.856 93.8191 86.984C94.5551 87.16 95.1871 87.48 95.7151 87.944C96.2431 88.392 96.6911 88.936 97.0591 89.576C97.4271 90.2 97.7151 90.888 97.9231 91.64C98.1311 92.376 98.2831 93.128 98.3791 93.896C98.4431 94.408 98.4671 94.92 98.4511 95.432C98.4351 95.928 98.3951 96.432 98.3311 96.944C98.2671 97.408 98.1871 97.872 98.0911 98.336C98.0111 98.8 97.8991 99.248 97.7551 99.68C97.6111 100.112 97.4271 100.528 97.2031 100.928C96.9791 101.312 96.6991 101.672 96.3631 102.008C95.7551 102.6 95.0911 103.064 94.3711 103.4C93.6671 103.72 92.9071 103.896 92.0911 103.928ZM92.0671 89.936C91.8431 89.936 91.6191 89.96 91.3951 90.008C91.1871 90.04 90.9871 90.12 90.7951 90.248C90.5711 90.392 90.3711 90.568 90.1951 90.776C90.0191 90.984 89.8671 91.2 89.7391 91.424C89.4031 92 89.1711 92.616 89.0431 93.272C88.9151 93.928 88.8511 94.592 88.8511 95.264C88.8511 95.952 88.9231 96.664 89.0671 97.4C89.2271 98.136 89.5071 98.808 89.9071 99.416C90.0991 99.704 90.3231 99.96 90.5791 100.184C90.8511 100.392 91.1631 100.544 91.5151 100.64C91.8351 100.72 92.1551 100.744 92.4751 100.712C92.8111 100.68 93.1231 100.576 93.4111 100.4C93.8751 100.112 94.2431 99.728 94.5151 99.248C94.7871 98.768 94.9871 98.248 95.1151 97.688C95.2591 97.128 95.3391 96.552 95.3551 95.96C95.3871 95.368 95.3871 94.832 95.3551 94.352C95.3231 93.872 95.2431 93.368 95.1151 92.84C94.9871 92.312 94.7951 91.832 94.5391 91.4C94.2991 90.968 93.9711 90.616 93.5551 90.344C93.1551 90.056 92.6591 89.92 92.0671 89.936ZM106.781 103.928C106.493 103.928 106.197 103.912 105.893 103.88C105.605 103.832 105.317 103.752 105.029 103.64C104.597 103.464 104.181 103.232 103.781 102.944C103.397 102.64 103.045 102.304 102.725 101.936C101.957 101.072 101.373 100.056 100.973 98.888C100.573 97.704 100.373 96.504 100.373 95.288C100.373 93.624 100.693 92.016 101.333 90.464C101.445 90.192 101.589 89.904 101.765 89.6C101.957 89.296 102.165 89.008 102.389 88.736C102.629 88.448 102.869 88.192 103.109 87.968C103.365 87.744 103.621 87.576 103.877 87.464C104.229 87.304 104.613 87.144 105.029 86.984C105.541 86.824 106.117 86.752 106.757 86.768C107.397 86.784 107.981 86.856 108.509 86.984C109.245 87.16 109.877 87.48 110.405 87.944C110.933 88.392 111.381 88.936 111.749 89.576C112.117 90.2 112.405 90.888 112.613 91.64C112.821 92.376 112.973 93.128 113.069 93.896C113.133 94.408 113.157 94.92 113.141 95.432C113.125 95.928 113.085 96.432 113.021 96.944C112.957 97.408 112.877 97.872 112.781 98.336C112.701 98.8 112.589 99.248 112.445 99.68C112.301 100.112 112.117 100.528 111.893 100.928C111.669 101.312 111.389 101.672 111.053 102.008C110.445 102.6 109.781 103.064 109.061 103.4C108.357 103.72 107.597 103.896 106.781 103.928ZM106.757 89.936C106.533 89.936 106.309 89.96 106.085 90.008C105.877 90.04 105.677 90.12 105.485 90.248C105.261 90.392 105.061 90.568 104.885 90.776C104.709 90.984 104.557 91.2 104.429 91.424C104.093 92 103.861 92.616 103.733 93.272C103.605 93.928 103.541 94.592 103.541 95.264C103.541 95.952 103.613 96.664 103.757 97.4C103.917 98.136 104.197 98.808 104.597 99.416C104.789 99.704 105.013 99.96 105.269 100.184C105.541 100.392 105.853 100.544 106.205 100.64C106.525 100.72 106.845 100.744 107.165 100.712C107.501 100.68 107.813 100.576 108.101 100.4C108.565 100.112 108.933 99.728 109.205 99.248C109.477 98.768 109.677 98.248 109.805 97.688C109.949 97.128 110.029 96.552 110.045 95.96C110.077 95.368 110.077 94.832 110.045 94.352C110.013 93.872 109.933 93.368 109.805 92.84C109.677 92.312 109.485 91.832 109.229 91.4C108.989 90.968 108.661 90.616 108.245 90.344C107.845 90.056 107.349 89.92 106.757 89.936Z" fill="white"/>
</svg>
